<svg xmlns="http://www.w3.org/2000/svg" version="1.1" viewBox="-5.0 -10.0 110.0 135.0">
 <path d="m61 16c-7.7188 0.17969-12.699 5.4492-15.906 10.719-10.352 4.5195-19.57 5.5781-30.594 5.4375-4.5664 0.18359-8.0703 2.8828-10.281 6.1875-2.1914 3.2773-3.2773 7.1797-3.2188 10.625v0.03125 0.0625c-0.042969 3.0977 1.0547 6.4805 3.0312 9.2812 1.9492 2.7617 4.9336 4.9922 8.625 5.0938 1.1602 0.13672 2.375 0.27344 3.4375 0.375 0.48438 5.3828 1.1641 12.023 3.9688 17.156 0.87109 1.5625 2.2656 3 3.9375 3.0312 3.7031-0.25781 8.332-0.8125 10.688-3.375 0.51953-0.59375 0.63672-1.5117 0.28125-2.2188-3.2109-6.3672-4.1133-10.352-4.125-13.625 6.1133 0.73047 12.402 2.9375 16.406 5.7188 3.5898 4.582 8.375 7.5 13.75 7.5 6.0703 0 11.43-3.7383 15.125-9.375s5.875-13.262 5.875-21.625-2.1797-15.957-5.875-21.594c-4.418-5.7461-9.5-9.2734-15.125-9.4062zm30 1-9 4 2 1-5 4 8-4-2-1zm-30 3c4.4219 0 8.5664 2.7344 11.75 7.5938s5.25 11.754 5.25 19.406-2.0664 14.547-5.25 19.406-7.3281 7.5938-11.75 7.5938c-3.6523 0-7.082-1.8984-9.9688-5.2812-2.7305-3.2969-4.9609-8.418-5.9062-12.25l14.219-2.5c1.3984-0.11719 2.6016-0.91016 3.375-1.9375 0.83594-1.1133 1.2812-2.5195 1.2812-4.0312s-0.44531-2.918-1.2812-4.0312c-0.77344-1.0312-1.9766-1.8203-3.375-1.9375l-14.656-2.5938c0.85938-4.582 2.4727-8.6562 4.5625-11.844 3.1836-4.8594 7.3281-7.5938 11.75-7.5938zm36 11-9 1 1 2-6 2 9-1-1-2zm-54.469 1.1562c-3.4258 10.453-3.2969 21.867 0.75 31.5-5.3086-2.1719-10.383-2.8438-15.594-3.1562-2.4219-3.6562-4.6875-8.7852-4.6875-12.5 0-3.8906 2.2734-9.2188 6.125-12.5 4.4609-0.58984 8.9023-1.6406 13.406-3.3438zm-19.438 3.875c-2.6875 3.6758-4.0938 8.0742-4.0938 11.969 0 4.1797 1.6992 8.5625 3.8125 12.25-3.5352-0.23047-6.9492-0.44141-9.9062-0.78125-2.1914 0-4.1055-1.3281-5.5938-3.4375s-2.3555-4.9258-2.3125-6.9688c0.28906-3.1094 1.082-6.2656 2.5312-8.5 1.7031-2.5469 4.0469-4.2812 7.1562-4.4062 2.9258 0.011719 5.9023 0.011719 8.4062-0.125zm21.062 7.375 10.406 1.8438c-0.35938 0.83984-0.5625 1.7695-0.5625 2.75s0.20312 1.9102 0.5625 2.75l-10.188 1.8125c-0.39453-3.2109-0.47266-6.1562-0.21875-9.1562zm44.844 1.5938 1 2h-7l9 2v-2h7zm-30 1c0.79297 0.12109 1 1.25 1 2 0 1.0039-0.30859 1.8672-1 2-0.79297-0.1875-0.98047-1.25-1-2 0-1.0039 0.28906-1.8867 1-2zm30 12v2l-6-1 9 4-1-3 7 2zm-68.875 6.125c1.3594 0.085938 2.6914 0.15625 3.9688 0.21875 0.33984 5.4531 1.832 10.391 3.9688 15.125-1.332 0.30469-2.7461 0.48047-3.8438 0.5-2.9062-4.7148-3.7266-10.91-4.0938-15.844zm58.875 4.875 8 6v-2l6 3-8-6v2z"/>
<text x="0.0" y="117.5" font-size="5.0" font-weight="bold" font-family="Arbeit Regular, Helvetica, Arial-Unicode, Arial, Sans-serif" fill="#000000">Created by karina</text><text x="0.0" y="122.5" font-size="5.0" font-weight="bold" font-family="Arbeit Regular, Helvetica, Arial-Unicode, Arial, Sans-serif" fill="#000000">from Noun Project</text></svg>