<?xml version="1.0" standalone="no"?>
<!DOCTYPE svg PUBLIC "-//W3C//DTD SVG 20010904//EN"
 "http://www.w3.org/TR/2001/REC-SVG-20010904/DTD/svg10.dtd">
<svg version="1.0" xmlns="http://www.w3.org/2000/svg"
 width="2048.000000pt" height="2048.000000pt" viewBox="0 0 2048.000000 2048.000000"
 preserveAspectRatio="xMidYMid meet">

<g transform="translate(0.000000,2048.000000) scale(0.100000,-0.100000)"
fill="#000000" stroke="none">
<path d="M8265 14154 c-179 -18 -323 -55 -497 -126 -87 -35 -101 -38 -135 -29
-97 27 -185 8 -318 -69 -236 -136 -733 -490 -850 -606 -118 -115 -167 -320
-114 -477 21 -64 102 -222 190 -373 13 -23 65 -112 114 -199 107 -187 173
-261 280 -315 65 -33 76 -35 165 -35 81 1 103 4 152 27 103 48 188 143 233
260 13 36 25 57 28 48 23 -68 27 -91 27 -146 0 -34 7 -96 15 -136 27 -130 130
-249 272 -316 53 -24 69 -27 173 -27 109 0 118 2 185 33 39 18 102 58 142 88
l72 55 53 -43 c126 -102 276 -152 431 -144 45 2 72 2 59 -1 -22 -4 -23 -5 -5
-18 24 -19 33 -18 33 1 0 12 7 15 25 12 20 -4 23 -2 15 7 -14 17 3 28 41 27
16 0 29 4 29 9 0 5 -6 9 -14 9 -8 0 -18 5 -22 12 -5 7 -2 9 9 5 11 -4 14 -2
10 9 -5 14 12 20 20 7 2 -5 3 -3 1 3 -1 7 11 25 28 40 44 42 101 150 115 219
7 33 13 106 13 163 0 99 9 142 30 142 6 0 10 -9 10 -21 0 -12 19 -57 41 -100
129 -248 413 -299 615 -111 95 89 139 160 343 554 119 230 143 297 143 393 0
141 -47 246 -161 359 -114 111 -657 492 -844 591 -103 55 -161 69 -234 56 -51
-10 -58 -9 -115 20 -86 43 -277 105 -383 123 -89 16 -343 28 -420 20z m249
-183 c3 -4 36 -11 73 -14 37 -3 92 -11 121 -18 53 -13 70 -29 30 -29 -21 0
-21 0 -2 -15 26 -19 58 -20 50 0 -7 19 10 19 49 0 22 -11 24 -13 6 -9 -21 5
-40 -7 -41 -27 0 -8 33 -5 48 5 20 12 28 -2 14 -24 -14 -23 -12 -24 22 -8 20
9 23 14 15 25 -9 10 -7 13 8 13 14 0 19 -7 19 -21 -1 -12 5 -24 13 -27 9 -3
11 1 6 17 -5 15 -2 21 9 21 9 0 16 -4 16 -10 0 -5 7 -10 15 -10 9 0 41 -14 73
-31 56 -30 65 -31 142 -17 8 2 15 -1 15 -7 0 -5 -9 -11 -19 -12 -32 -5 -29
-10 7 -15 27 -3 33 0 29 10 -4 12 -1 12 19 1 14 -7 19 -14 11 -17 -16 -5 -15
-19 2 -25 8 -3 13 1 12 11 -1 13 7 17 29 15 l30 -1 -28 12 c-15 7 -24 15 -21
19 4 4 -7 7 -24 7 -18 0 -32 5 -32 10 0 30 129 -29 130 -59 0 -8 6 -11 16 -7
37 14 77 -41 47 -66 -13 -10 -12 -13 8 -20 25 -10 52 7 33 20 -6 4 -13 15 -17
24 -6 17 24 1 118 -65 22 -15 65 -44 96 -65 56 -37 150 -104 214 -152 18 -14
43 -32 55 -40 53 -35 178 -130 211 -161 84 -77 110 -169 81 -279 -14 -54 -20
-64 -36 -62 -17 3 -18 2 -7 -12 11 -13 11 -16 0 -17 -8 -1 -18 -1 -22 0 -5 1
-6 -3 -2 -9 3 -6 11 -7 17 -4 7 4 8 -2 3 -17 -10 -32 -13 -35 -27 -21 -9 9 -9
12 1 12 7 0 9 5 5 11 -4 8 -9 7 -14 -2 -7 -10 -13 -9 -33 4 -22 14 -26 14 -31
2 -4 -11 2 -15 20 -15 23 0 25 -3 20 -24 -4 -15 -1 -28 6 -32 8 -5 9 -2 5 9
-3 10 -3 17 2 17 17 0 19 -14 5 -41 -15 -30 -28 -40 -18 -14 4 8 1 15 -4 15
-18 0 -24 -20 -12 -35 12 -14 9 -18 -7 -12 -5 1 -7 5 -6 9 2 4 -7 13 -19 19
-19 10 -20 9 -13 -7 4 -11 9 -28 12 -39 4 -16 3 -17 -6 -5 -9 12 -11 11 -11
-7 0 -13 -4 -23 -9 -23 -5 0 -7 -9 -4 -20 3 -11 1 -20 -5 -20 -6 0 -13 8 -15
18 -3 11 -5 8 -6 -9 -1 -28 -26 -57 -39 -45 -4 4 1 13 11 21 15 11 16 13 2 19
-8 3 -15 1 -15 -4 0 -6 -7 -10 -15 -10 -8 0 -15 -9 -15 -21 0 -11 3 -18 8 -15
11 6 47 -22 38 -31 -4 -4 -11 -1 -16 7 -8 12 -13 11 -31 -8 -19 -21 -22 -22
-38 -8 -10 9 -20 13 -24 10 -7 -8 36 -44 52 -44 6 0 11 5 11 10 0 6 7 10 15
10 8 0 15 -5 15 -11 0 -6 7 -9 14 -6 10 4 13 1 9 -9 -6 -16 -23 -19 -23 -4 0
6 -7 10 -15 10 -8 0 -15 -5 -15 -11 0 -7 -10 -9 -25 -7 -20 4 -23 3 -14 -8 6
-8 14 -12 18 -10 4 3 12 -4 19 -15 7 -10 8 -19 3 -19 -6 0 -13 5 -16 10 -4 6
-11 8 -16 4 -6 -4 -3 -14 7 -25 10 -11 12 -19 6 -19 -7 0 -12 3 -12 8 0 4 -11
12 -25 19 -14 6 -25 8 -25 3 0 -4 -7 -7 -16 -6 -9 0 -19 -4 -21 -10 -2 -7 7
-11 21 -10 13 0 25 -2 25 -6 3 -24 -1 -29 -18 -23 -23 7 -38 -12 -22 -28 6 -6
11 -16 11 -21 0 -7 -3 -8 -8 -1 -7 10 -48 35 -57 35 -3 0 4 -10 15 -22 18 -19
19 -24 6 -26 -21 -4 -20 -19 0 -30 15 -8 15 -10 0 -15 -10 -4 -15 -3 -12 2 3
5 -6 9 -19 9 -30 0 -41 -13 -19 -22 10 -4 13 -2 8 6 -4 7 -3 8 4 4 7 -4 12
-14 12 -22 0 -15 15 -19 23 -6 2 4 2 1 0 -7 -2 -8 2 -18 9 -23 10 -6 8 -8 -4
-8 -10 0 -18 -4 -18 -10 0 -33 -114 -51 -181 -29 -79 27 -157 150 -162 257 0
6 -4 12 -9 12 -5 0 -7 9 -3 19 3 11 2 22 -4 25 -15 10 -22 92 -25 307 -3 211
0 273 14 264 5 -3 12 0 17 7 11 18 10 89 -2 84 -11 -4 -11 -7 -1 -49 6 -24 4
-28 -11 -25 -27 5 -25 78 2 88 18 7 19 9 3 15 -10 4 -18 16 -18 27 0 12 6 18
18 16 10 -2 17 3 17 12 0 9 -8 14 -20 13 -19 -2 -20 5 -22 98 0 55 -4 112 -7
127 -3 15 -3 21 0 14 3 -6 10 -10 15 -6 14 8 11 24 -6 24 -8 0 -15 9 -15 20 0
11 7 20 15 20 9 0 12 6 9 15 -4 8 -10 12 -15 9 -5 -3 -18 10 -30 30 -26 44
-81 86 -113 86 -14 0 -37 -11 -53 -24 -22 -19 -28 -32 -27 -65 1 -22 7 -47 13
-55 6 -7 14 -48 16 -91 5 -69 4 -76 -10 -65 -12 10 -15 10 -15 -4 0 -9 7 -19
14 -22 20 -8 23 -344 3 -345 -9 0 -9 -2 1 -6 21 -8 14 -50 -10 -58 -13 -4 -26
-7 -30 -6 -4 0 -5 -6 -2 -14 7 -17 24 -20 24 -5 0 24 26 7 28 -17 1 -22 0 -24
-8 -13 -8 12 -10 9 -10 -12 0 -15 -6 -28 -15 -30 -10 -2 -12 -7 -5 -18 9 -13
11 -13 19 0 6 8 13 11 17 7 4 -3 1 -14 -6 -23 -11 -12 -11 -17 -2 -23 7 -4 10
-15 6 -24 -9 -23 -27 -21 -19 2 3 12 0 21 -10 25 -18 7 -45 -3 -45 -16 0 -6 6
-5 15 2 15 13 16 12 31 -39 2 -7 10 -11 17 -8 10 4 13 -5 13 -29 -1 -19 -6
-34 -12 -34 -13 0 -27 -30 -19 -39 3 -3 10 0 14 8 6 10 10 9 15 -4 10 -27 7
-35 -11 -28 -16 6 -16 5 0 -12 18 -18 18 -19 -5 -36 -12 -10 -20 -19 -15 -19
4 0 -4 -17 -17 -38 -13 -21 -39 -67 -57 -102 -33 -65 -33 -65 -34 -210 0 -138
-1 -147 -27 -196 -82 -156 -273 -190 -435 -78 -73 51 -109 96 -120 155 -9 45
-8 49 11 55 37 12 130 80 174 128 52 57 72 100 72 160 0 103 -103 156 -304
156 -249 0 -366 -50 -366 -156 0 -85 68 -172 201 -256 42 -26 68 -50 69 -61 1
-64 -87 -162 -188 -210 -162 -76 -325 -28 -400 117 -22 45 -26 66 -30 171 l-4
120 -72 135 -71 135 -3 457 c-3 397 -1 465 13 513 25 89 23 124 -10 153 -53
45 -120 16 -163 -71 -29 -60 -33 -128 -33 -607 0 -410 -4 -489 -29 -593 -10
-40 -14 -46 -26 -36 -17 14 -18 5 -3 -23 8 -14 8 -23 0 -31 -6 -6 -11 -17 -11
-25 0 -28 -74 -112 -115 -132 -69 -33 -155 -23 -221 26 -39 28 -138 172 -200
290 -26 49 -57 105 -69 124 -11 19 -57 107 -101 195 -78 157 -79 161 -79 235
0 65 4 81 29 120 16 25 38 56 50 69 25 29 371 287 476 356 41 27 118 79 170
116 123 87 193 128 256 149 44 16 55 16 90 4 60 -21 78 -18 225 41 135 55 284
98 397 114 77 11 300 13 306 2z m1586 -1315 c0 -3 -4 -8 -10 -11 -5 -3 -10 -1
-10 4 0 6 5 11 10 11 6 0 10 -2 10 -4z m-22 -38 c-6 -18 -28 -21 -28 -4 0 9 7
16 16 16 9 0 14 -5 12 -12z m-26 -50 c-7 -7 -12 -8 -12 -2 0 14 12 26 19 19 2
-3 -1 -11 -7 -17z m-22 -40 c0 -5 -4 -8 -10 -8 -5 0 -10 10 -10 23 0 18 2 19
10 7 5 -8 10 -18 10 -22z m-20 -28 c0 -5 -5 -10 -11 -10 -5 0 -7 5 -4 10 3 6
8 10 11 10 2 0 4 -4 4 -10z m-105 -150 c3 -5 1 -10 -4 -10 -6 0 -11 5 -11 10
0 6 2 10 4 10 3 0 8 -4 11 -10z m-27 -48 c2 -7 -2 -10 -12 -6 -9 3 -16 11 -16
16 0 13 23 5 28 -10z m-868 -642 c0 -5 -4 -10 -10 -10 -5 0 -10 5 -10 10 0 6
5 10 10 10 6 0 10 -4 10 -10z"/>
<path d="M8725 13840 c-3 -5 -2 -10 4 -10 5 0 13 5 16 10 3 6 2 10 -4 10 -5 0
-13 -4 -16 -10z"/>
<path d="M8895 13800 c3 -5 8 -10 11 -10 2 0 4 5 4 10 0 6 -5 10 -11 10 -5 0
-7 -4 -4 -10z"/>
<path d="M8771 13774 c0 -11 3 -14 6 -6 3 7 2 16 -1 19 -3 4 -6 -2 -5 -13z"/>
<path d="M8630 13761 c0 -5 5 -13 10 -16 6 -3 10 -2 10 4 0 5 -4 13 -10 16 -5
3 -10 2 -10 -4z"/>
<path d="M8532 13725 c11 -25 38 -35 38 -14 0 5 -4 8 -9 5 -5 -3 -11 3 -14 14
-3 11 -10 20 -16 20 -7 0 -7 -8 1 -25z"/>
<path d="M9375 13720 c-3 -5 -1 -10 5 -10 7 0 10 -6 7 -14 -5 -12 4 -14 31 -7
1 1 -2 10 -8 21 -12 22 -25 26 -35 10z"/>
<path d="M9300 13715 c0 -2 9 -9 20 -15 16 -9 18 -8 14 5 -5 13 -34 22 -34 10z"/>
<path d="M8475 13700 c3 -5 8 -10 11 -10 2 0 4 5 4 10 0 6 -5 10 -11 10 -5 0
-7 -4 -4 -10z"/>
<path d="M8785 13699 c-11 -16 -1 -19 13 -3 7 8 8 14 3 14 -5 0 -13 -5 -16
-11z"/>
<path d="M9155 13700 c-3 -5 -1 -10 4 -10 6 0 11 5 11 10 0 6 -2 10 -4 10 -3
0 -8 -4 -11 -10z"/>
<path d="M9030 13680 c0 -5 5 -10 11 -10 5 0 7 5 4 10 -3 6 -8 10 -11 10 -2 0
-4 -4 -4 -10z"/>
<path d="M9265 13680 c3 -5 8 -10 11 -10 2 0 4 5 4 10 0 6 -5 10 -11 10 -5 0
-7 -4 -4 -10z"/>
<path d="M8515 13670 c3 -5 10 -10 16 -10 5 0 9 5 9 10 0 6 -7 10 -16 10 -8 0
-12 -4 -9 -10z"/>
<path d="M8590 13670 c0 -5 5 -10 10 -10 6 0 10 5 10 10 0 6 -4 10 -10 10 -5
0 -10 -4 -10 -10z"/>
<path d="M8880 13660 c0 -5 5 -10 11 -10 5 0 7 5 4 10 -3 6 -8 10 -11 10 -2 0
-4 -4 -4 -10z"/>
<path d="M9188 13663 c7 -3 16 -2 19 1 4 3 -2 6 -13 5 -11 0 -14 -3 -6 -6z"/>
<path d="M8710 13630 c0 -5 5 -10 11 -10 5 0 7 5 4 10 -3 6 -8 10 -11 10 -2 0
-4 -4 -4 -10z"/>
<path d="M8796 13627 c3 -10 9 -15 12 -12 3 3 0 11 -7 18 -10 9 -11 8 -5 -6z"/>
<path d="M8467 13614 c-8 -8 1 -24 14 -24 5 0 9 7 9 15 0 15 -12 20 -23 9z"/>
<path d="M8587 13599 c7 -7 15 -10 18 -7 3 3 -2 9 -12 12 -14 6 -15 5 -6 -5z"/>
<path d="M8660 13601 c0 -5 5 -13 10 -16 6 -3 10 -2 10 4 0 5 -4 13 -10 16 -5
3 -10 2 -10 -4z"/>
<path d="M9547 13599 c7 -7 15 -10 18 -7 3 3 -2 9 -12 12 -14 6 -15 5 -6 -5z"/>
<path d="M8765 13580 c3 -5 8 -10 11 -10 2 0 4 5 4 10 0 6 -5 10 -11 10 -5 0
-7 -4 -4 -10z"/>
<path d="M8885 13580 c3 -5 11 -10 16 -10 6 0 7 5 4 10 -3 6 -11 10 -16 10 -6
0 -7 -4 -4 -10z"/>
<path d="M8500 13571 c0 -5 7 -14 15 -21 12 -10 15 -10 15 3 0 8 -7 17 -15 21
-8 3 -15 2 -15 -3z"/>
<path d="M8640 13554 c0 -14 3 -14 15 -4 8 7 15 14 15 16 0 2 -7 4 -15 4 -8 0
-15 -7 -15 -16z"/>
<path d="M8550 13540 c0 -19 3 -21 12 -12 9 9 9 15 0 24 -9 9 -12 7 -12 -12z"/>
<path d="M9545 13550 c-3 -5 -1 -10 4 -10 6 0 11 5 11 10 0 6 -2 10 -4 10 -3
0 -8 -4 -11 -10z"/>
<path d="M8465 13540 c-3 -5 -3 -15 1 -21 6 -11 23 6 24 24 0 10 -18 9 -25 -3z"/>
<path d="M8610 13530 c0 -5 5 -10 10 -10 6 0 10 5 10 10 0 6 -4 10 -10 10 -5
0 -10 -4 -10 -10z"/>
<path d="M8776 13517 c3 -10 9 -15 12 -12 3 3 0 11 -7 18 -10 9 -11 8 -5 -6z"/>
<path d="M9610 13520 c0 -5 5 -10 11 -10 5 0 7 5 4 10 -3 6 -8 10 -11 10 -2 0
-4 -4 -4 -10z"/>
<path d="M8525 13500 c10 -11 20 -18 23 -15 7 6 -18 35 -31 35 -5 0 -2 -9 8
-20z"/>
<path d="M9135 13509 c-11 -16 -1 -19 13 -3 7 8 8 14 3 14 -5 0 -13 -5 -16
-11z"/>
<path d="M8716 13495 c-4 -10 1 -15 16 -15 17 0 18 2 8 15 -7 8 -14 15 -15 15
-2 0 -5 -7 -9 -15z"/>
<path d="M8430 13480 c0 -5 7 -10 16 -10 8 0 12 5 9 10 -3 6 -10 10 -16 10 -5
0 -9 -4 -9 -10z"/>
<path d="M8950 13478 c0 -9 5 -20 10 -23 13 -8 13 5 0 25 -8 13 -10 13 -10 -2z"/>
<path d="M9160 13465 c0 -8 5 -15 10 -15 6 0 10 7 10 15 0 8 -4 15 -10 15 -5
0 -10 -7 -10 -15z"/>
<path d="M8462 13455 c-17 -19 -1 -19 24 0 14 11 15 14 4 14 -8 0 -21 -6 -28
-14z"/>
<path d="M8521 13456 c-6 -7 -9 -21 -5 -30 10 -26 22 -18 20 14 -1 35 0 34
-15 16z"/>
<path d="M9116 13451 c-4 -7 -5 -15 -2 -18 9 -9 19 4 14 18 -4 11 -6 11 -12 0z"/>
<path d="M9450 13445 c7 -8 17 -12 22 -9 6 4 5 10 -3 15 -22 14 -33 10 -19 -6z"/>
<path d="M8860 13430 c-8 -5 -12 -12 -9 -15 4 -3 12 1 19 10 14 17 11 19 -10
5z"/>
<path d="M8610 13419 c0 -5 5 -7 10 -4 6 3 10 8 10 11 0 2 -4 4 -10 4 -5 0
-10 -5 -10 -11z"/>
<path d="M9167 13415 c-4 -8 -2 -17 3 -20 6 -4 10 3 10 14 0 25 -6 27 -13 6z"/>
<path d="M9415 13410 c3 -5 8 -10 11 -10 2 0 4 5 4 10 0 6 -5 10 -11 10 -5 0
-7 -4 -4 -10z"/>
<path d="M8580 13400 c0 -5 5 -10 11 -10 5 0 7 5 4 10 -3 6 -8 10 -11 10 -2 0
-4 -4 -4 -10z"/>
<path d="M9450 13400 c-8 -5 -12 -11 -9 -14 2 -3 11 -1 19 4 8 5 12 11 9 14
-2 3 -11 1 -19 -4z"/>
<path d="M9140 13370 c-8 -5 -12 -11 -9 -14 2 -3 11 -1 19 4 8 5 12 11 9 14
-2 3 -11 1 -19 -4z"/>
<path d="M9575 13360 c3 -5 8 -10 11 -10 2 0 4 5 4 10 0 6 -5 10 -11 10 -5 0
-7 -4 -4 -10z"/>
<path d="M8445 13340 c-3 -5 -1 -10 4 -10 6 0 11 5 11 10 0 6 -2 10 -4 10 -3
0 -8 -4 -11 -10z"/>
<path d="M9107 13323 c3 -7 9 -10 14 -7 14 8 11 21 -5 21 -8 0 -12 -6 -9 -14z"/>
<path d="M8511 13314 c6 -8 15 -14 19 -14 4 0 10 6 13 14 4 9 -2 14 -19 14
-20 0 -22 -3 -13 -14z"/>
<path d="M8612 13300 c14 -22 24 -19 15 5 -4 8 -11 15 -17 15 -6 0 -6 -7 2
-20z"/>
<path d="M9925 13309 c-4 -6 -4 -13 -1 -16 3 -4 6 -1 6 5 0 6 8 13 18 15 15 4
15 5 0 6 -9 0 -20 -4 -23 -10z"/>
<path d="M6920 13302 c0 -12 19 -26 26 -19 2 2 -2 10 -11 17 -9 8 -15 8 -15 2z"/>
<path d="M9150 13300 c0 -5 5 -10 10 -10 6 0 10 5 10 10 0 6 -4 10 -10 10 -5
0 -10 -4 -10 -10z"/>
<path d="M7125 13250 c-3 -5 0 -10 9 -10 8 0 17 -6 19 -12 4 -8 6 -9 6 -2 1
18 -26 37 -34 24z"/>
<path d="M9440 13235 c0 -9 9 -15 21 -15 18 0 19 2 9 15 -7 8 -16 15 -21 15
-5 0 -9 -7 -9 -15z"/>
<path d="M10080 13221 c0 -10 19 -25 25 -20 1 2 -3 10 -11 17 -8 7 -14 8 -14
3z"/>
<path d="M7025 13200 c3 -5 8 -10 11 -10 2 0 4 5 4 10 0 6 -5 10 -11 10 -5 0
-7 -4 -4 -10z"/>
<path d="M7165 13199 c-4 -6 -4 -13 0 -17 4 -4 10 -1 12 6 3 6 10 9 15 6 7 -4
8 -2 4 4 -9 15 -23 15 -31 1z"/>
<path d="M6615 13180 c-3 -5 -1 -10 4 -10 6 0 11 5 11 10 0 6 -2 10 -4 10 -3
0 -8 -4 -11 -10z"/>
<path d="M8605 13180 c3 -5 8 -10 11 -10 2 0 4 5 4 10 0 6 -5 10 -11 10 -5 0
-7 -4 -4 -10z"/>
<path d="M9580 13180 c0 -5 4 -10 9 -10 5 0 18 -3 28 -7 17 -6 17 -6 1 10 -18
19 -38 22 -38 7z"/>
<path d="M9515 13170 c-3 -6 1 -7 9 -4 18 7 21 14 7 14 -6 0 -13 -4 -16 -10z"/>
<path d="M7030 13161 c0 -5 5 -13 10 -16 6 -3 10 -2 10 4 0 5 -4 13 -10 16 -5
3 -10 2 -10 -4z"/>
<path d="M7135 13160 c-3 -5 -2 -10 4 -10 5 0 13 5 16 10 3 6 2 10 -4 10 -5 0
-13 -4 -16 -10z"/>
<path d="M9453 13163 c-21 -8 -15 -22 7 -16 11 3 20 9 20 14 0 10 -8 10 -27 2z"/>
<path d="M10150 13161 c0 -6 4 -13 10 -16 6 -3 7 1 4 9 -7 18 -14 21 -14 7z"/>
<path d="M8796 13150 c-16 -5 -34 -6 -39 -3 -6 3 -7 1 -3 -5 4 -7 2 -12 -3
-12 -32 0 -86 -150 -60 -166 5 -3 9 -11 9 -19 0 -22 42 -61 79 -73 72 -25 130
-8 175 51 31 40 36 119 10 155 -8 12 -12 27 -8 34 5 7 3 8 -5 4 -7 -5 -20 -1
-29 7 -16 13 -78 38 -91 36 -3 0 -19 -5 -35 -9z"/>
<path d="M7875 13140 c-11 -4 -38 -27 -59 -50 -37 -41 -38 -45 -34 -101 5 -69
28 -100 94 -125 42 -16 45 -16 91 7 85 43 112 113 74 192 -32 67 -107 102
-166 77z"/>
<path d="M9465 13121 c3 -5 0 -11 -6 -13 -7 -2 -10 -10 -8 -17 3 -9 10 -7 22
7 16 18 16 20 2 26 -9 3 -14 2 -10 -3z"/>
<path d="M9520 13120 c0 -5 4 -10 9 -10 6 0 13 5 16 10 3 6 -1 10 -9 10 -9 0
-16 -4 -16 -10z"/>
<path d="M10175 13121 c-3 -5 -2 -12 3 -15 5 -3 9 1 9 9 0 17 -3 19 -12 6z"/>
<path d="M9736 13105 c-3 -8 -1 -15 4 -15 6 0 10 7 10 15 0 8 -2 15 -4 15 -2
0 -6 -7 -10 -15z"/>
<path d="M8530 13100 c0 -5 5 -10 10 -10 6 0 10 5 10 10 0 6 -4 10 -10 10 -5
0 -10 -4 -10 -10z"/>
<path d="M9800 13086 c0 -2 7 -9 15 -16 9 -7 15 -8 15 -2 0 5 -7 12 -15 16 -8
3 -15 4 -15 2z"/>
<path d="M7160 13072 c0 -5 7 -15 15 -22 8 -7 15 -8 15 -2 0 5 -7 15 -15 22
-8 7 -15 8 -15 2z"/>
<path d="M9720 13058 c0 -16 37 -27 48 -16 20 20 14 27 -18 25 -16 -1 -30 -5
-30 -9z"/>
<path d="M9612 13044 c10 -10 20 -15 24 -12 3 4 -5 12 -18 18 -22 12 -22 12
-6 -6z"/>
<path d="M10190 13043 c-13 -15 -12 -16 4 -10 10 4 20 7 22 7 2 0 4 5 4 10 0
15 -13 12 -30 -7z"/>
<path d="M9458 13043 c7 -3 16 -2 19 1 4 3 -2 6 -13 5 -11 0 -14 -3 -6 -6z"/>
<path d="M9799 13031 c11 -7 11 -14 -2 -40 -8 -17 -12 -31 -7 -31 11 0 31 60
24 71 -3 5 -11 9 -17 9 -8 0 -7 -3 2 -9z"/>
<path d="M9845 13030 c-3 -5 -1 -10 4 -10 6 0 11 5 11 10 0 6 -2 10 -4 10 -3
0 -8 -4 -11 -10z"/>
<path d="M10077 13016 c-4 -10 -1 -13 9 -9 7 3 14 9 14 14 0 14 -17 10 -23 -5z"/>
<path d="M9575 13010 c3 -5 8 -10 11 -10 2 0 4 5 4 10 0 6 -5 10 -11 10 -5 0
-7 -4 -4 -10z"/>
<path d="M9756 13012 c-3 -5 1 -9 9 -9 8 0 15 4 15 9 0 4 -4 8 -9 8 -6 0 -12
-4 -15 -8z"/>
<path d="M9970 13010 c0 -5 5 -10 10 -10 6 0 10 5 10 10 0 6 -4 10 -10 10 -5
0 -10 -4 -10 -10z"/>
<path d="M9693 12996 c9 -7 17 -21 17 -31 0 -14 3 -15 15 -5 14 12 14 15 -1
31 -10 11 -24 19 -33 19 -14 -1 -14 -2 2 -14z"/>
<path d="M10156 12995 c4 -8 7 -15 9 -15 2 0 5 7 9 15 3 9 0 15 -9 15 -9 0
-12 -6 -9 -15z"/>
<path d="M9847 12993 c-4 -3 -7 -14 -7 -24 0 -13 5 -17 17 -12 10 4 12 8 6 10
-7 3 -9 11 -6 19 5 15 1 18 -10 7z"/>
<path d="M9432 12978 c-7 -9 -6 -17 4 -26 12 -11 14 -9 14 13 0 28 -3 30 -18
13z"/>
<path d="M9600 12980 c0 -5 5 -10 11 -10 5 0 7 5 4 10 -3 6 -8 10 -11 10 -2 0
-4 -4 -4 -10z"/>
<path d="M9990 12955 c7 -8 16 -12 21 -9 16 9 10 20 -12 21 -17 2 -18 -1 -9
-12z"/>
<path d="M9810 12940 c0 -5 5 -10 10 -10 6 0 10 5 10 10 0 6 -4 10 -10 10 -5
0 -10 -4 -10 -10z"/>
<path d="M7320 12925 c-11 -13 -10 -14 4 -9 9 3 16 10 16 15 0 13 -6 11 -20
-6z"/>
<path d="M9875 12930 c3 -5 8 -10 11 -10 2 0 4 5 4 10 0 6 -5 10 -11 10 -5 0
-7 -4 -4 -10z"/>
<path d="M9620 12916 c0 -2 7 -7 16 -10 8 -3 12 -2 9 4 -6 10 -25 14 -25 6z"/>
<path d="M10030 12911 c0 -6 5 -13 10 -16 6 -3 10 1 10 9 0 9 -4 16 -10 16 -5
0 -10 -4 -10 -9z"/>
<path d="M6920 12899 c0 -5 5 -7 10 -4 6 3 10 8 10 11 0 2 -4 4 -10 4 -5 0
-10 -5 -10 -11z"/>
<path d="M6700 12891 c0 -5 7 -12 16 -15 14 -5 15 -4 4 9 -14 17 -20 19 -20 6z"/>
<path d="M8589 12870 c-13 -10 -19 -19 -12 -20 6 0 13 6 15 12 3 9 9 8 22 -5
22 -21 21 -22 22 8 2 30 -15 32 -47 5z"/>
<path d="M8660 12870 c-8 -5 -12 -11 -10 -14 3 -2 14 2 24 10 22 15 10 19 -14
4z"/>
<path d="M9690 12844 c0 -8 5 -12 10 -9 6 3 10 10 10 16 0 5 -4 9 -10 9 -5 0
-10 -7 -10 -16z"/>
<path d="M9120 12825 c-11 -20 -11 -28 -1 -38 10 -9 11 -8 5 6 -5 13 -1 20 15
24 11 3 21 12 21 19 0 23 -26 16 -40 -11z"/>
<path d="M9036 12827 c3 -10 9 -15 12 -12 3 3 0 11 -7 18 -10 9 -11 8 -5 -6z"/>
<path d="M9740 12830 c-20 -12 -10 -19 14 -10 11 3 15 9 10 13 -6 3 -16 2 -24
-3z"/>
<path d="M9791 12816 c-8 -10 -9 -16 -1 -21 5 -3 13 1 16 10 9 22 -1 29 -15
11z"/>
<path d="M9958 12812 c-10 -2 -18 -8 -18 -13 0 -12 17 -12 25 1 3 5 12 7 20 3
8 -3 15 -3 15 0 0 8 -24 14 -42 9z"/>
<path d="M8910 12750 c0 -5 5 -10 10 -10 6 0 10 5 10 10 0 6 -4 10 -10 10 -5
0 -10 -4 -10 -10z"/>
<path d="M9790 12750 c0 -5 5 -10 10 -10 6 0 10 5 10 10 0 6 -4 10 -10 10 -5
0 -10 -4 -10 -10z"/>
<path d="M10000 12749 c0 -5 5 -7 10 -4 6 3 10 8 10 11 0 2 -4 4 -10 4 -5 0
-10 -5 -10 -11z"/>
<path d="M10067 12747 c-3 -8 3 -13 15 -14 10 -1 18 3 16 9 -6 18 -25 21 -31
5z"/>
<path d="M9410 12740 c0 -5 6 -10 14 -10 8 0 18 5 21 10 3 6 -3 10 -14 10 -12
0 -21 -4 -21 -10z"/>
<path d="M9859 12733 c-13 -15 -12 -15 9 -4 23 12 28 21 13 21 -5 0 -15 -7
-22 -17z"/>
<path d="M9023 12723 c14 -14 19 -15 29 -4 9 9 9 12 1 7 -6 -3 -14 -2 -18 4
-3 5 -11 10 -18 10 -6 0 -4 -7 6 -17z"/>
<path d="M9665 12709 c-4 -6 -5 -12 -2 -15 2 -3 7 2 10 11 7 17 1 20 -8 4z"/>
<path d="M9090 12701 c0 -5 7 -12 16 -15 14 -5 15 -4 4 9 -14 17 -20 19 -20 6z"/>
<path d="M10022 12687 c-7 -8 -9 -17 -5 -21 4 -4 -3 -9 -15 -13 -12 -3 -22 -9
-22 -14 0 -17 48 14 54 34 7 26 2 31 -12 14z"/>
<path d="M9602 12683 c-6 -2 -10 -9 -7 -13 7 -11 35 -2 35 11 0 10 -8 10 -28
2z"/>
<path d="M9136 12655 c-3 -8 -3 -15 0 -15 3 0 12 7 20 15 13 13 13 15 1 15 -8
0 -17 -7 -21 -15z"/>
<path d="M9775 12660 c3 -5 8 -10 11 -10 2 0 4 5 4 10 0 6 -5 10 -11 10 -5 0
-7 -4 -4 -10z"/>
<path d="M9423 12633 c-15 -5 -17 -23 -4 -23 5 0 11 7 15 15 3 8 4 15 3 14 -1
0 -8 -3 -14 -6z"/>
<path d="M9753 12629 c12 -7 16 -17 12 -30 -8 -24 10 -25 19 -2 7 17 -17 43
-38 43 -6 0 -3 -5 7 -11z"/>
<path d="M9606 12617 c3 -10 9 -15 12 -12 3 3 0 11 -7 18 -10 9 -11 8 -5 -6z"/>
<path d="M9945 12620 c3 -5 8 -10 11 -10 2 0 4 5 4 10 0 6 -5 10 -11 10 -5 0
-7 -4 -4 -10z"/>
<path d="M9910 12585 c0 -15 -2 -15 -16 -5 -13 12 -15 10 -11 -15 2 -16 8 -30
14 -32 11 -4 27 56 18 65 -3 3 -5 -3 -5 -13z"/>
<path d="M9596 12574 c-4 -9 -4 -19 -1 -22 3 -3 5 0 5 6 0 7 7 9 18 5 15 -6
15 -5 3 10 -17 21 -17 21 -25 1z"/>
<path d="M9805 12581 c-16 -3 -29 -11 -28 -16 2 -14 23 -19 23 -6 0 6 9 11 20
11 11 0 20 5 20 10 0 6 -1 9 -2 9 -2 -1 -16 -4 -33 -8z"/>
<path d="M9420 12571 c0 -6 4 -13 10 -16 6 -3 7 1 4 9 -7 18 -14 21 -14 7z"/>
<path d="M9072 12554 c10 -10 20 -16 22 -13 3 3 -5 11 -17 18 -21 13 -21 12
-5 -5z"/>
<path d="M9416 12527 c3 -10 9 -15 12 -12 3 3 0 11 -7 18 -10 9 -11 8 -5 -6z"/>
<path d="M9770 12530 c0 -5 7 -10 16 -10 8 0 12 5 9 10 -3 6 -10 10 -16 10 -5
0 -9 -4 -9 -10z"/>
<path d="M9836 12525 c-3 -8 -12 -15 -20 -15 -8 0 -18 -4 -21 -10 -4 -6 1 -7
12 -3 31 11 55 31 45 37 -6 3 -12 -1 -16 -9z"/>
<path d="M9520 12500 c0 -5 5 -10 10 -10 6 0 10 5 10 10 0 6 -4 10 -10 10 -5
0 -10 -4 -10 -10z"/>
<path d="M9856 12475 c4 -8 8 -15 10 -15 2 0 4 7 4 15 0 8 -4 15 -10 15 -5 0
-7 -7 -4 -15z"/>
<path d="M9675 12470 c3 -5 10 -10 16 -10 5 0 9 5 9 10 0 6 -7 10 -16 10 -8 0
-12 -4 -9 -10z"/>
<path d="M9759 12467 c-9 -7 -14 -18 -12 -24 3 -8 -5 -13 -19 -14 -21 0 -22
-1 -3 -8 27 -11 48 -2 40 17 -3 8 0 19 7 23 7 4 10 10 8 13 -3 2 -12 -1 -21
-7z"/>
<path d="M9805 12450 c3 -5 13 -10 21 -10 8 0 12 5 9 10 -3 6 -13 10 -21 10
-8 0 -12 -4 -9 -10z"/>
<path d="M9870 12431 c0 -6 5 -13 10 -16 6 -3 10 1 10 9 0 9 -4 16 -10 16 -5
0 -10 -4 -10 -9z"/>
<path d="M9805 12410 c3 -5 10 -10 16 -10 5 0 9 5 9 10 0 6 -7 10 -16 10 -8 0
-12 -4 -9 -10z"/>
<path d="M9720 12383 c0 -7 7 -13 16 -13 8 0 12 -4 9 -10 -3 -5 -1 -10 5 -10
7 0 9 7 6 17 -4 9 -1 20 5 24 7 4 0 6 -14 6 -15 -1 -27 -8 -27 -14z"/>
<path d="M9695 12360 c-3 -5 1 -10 10 -10 9 0 13 5 10 10 -3 6 -8 10 -10 10
-2 0 -7 -4 -10 -10z"/>
<path d="M9780 12356 c0 -2 7 -6 15 -10 8 -3 15 -1 15 4 0 6 -7 10 -15 10 -8
0 -15 -2 -15 -4z"/>
<path d="M9723 12327 c0 -7 8 -13 18 -13 13 0 15 3 7 13 -6 7 -14 13 -18 13
-3 0 -7 -6 -7 -13z"/>
<path d="M9690 12290 c6 -11 15 -20 20 -20 5 0 6 -7 3 -17 -4 -10 -2 -14 4
-10 6 4 13 16 16 27 3 11 2 18 -3 15 -4 -3 -13 2 -20 10 -18 22 -32 18 -20 -5z"/>
<path d="M9605 12240 c-3 -5 -2 -10 4 -10 5 0 13 5 16 10 3 6 2 10 -4 10 -5 0
-13 -4 -16 -10z"/>
<path d="M9555 12230 c-3 -5 -1 -10 4 -10 6 0 11 5 11 10 0 6 -2 10 -4 10 -3
0 -8 -4 -11 -10z"/>
<path d="M9590 12190 c0 -5 5 -10 10 -10 6 0 10 5 10 10 0 6 -4 10 -10 10 -5
0 -10 -4 -10 -10z"/>
<path d="M9742 12178 c2 -5 8 -9 13 -9 5 0 11 4 13 9 1 5 -4 9 -13 9 -9 0 -14
-4 -13 -9z"/>
<path d="M9625 12160 c3 -5 8 -10 11 -10 2 0 4 5 4 10 0 6 -5 10 -11 10 -5 0
-7 -4 -4 -10z"/>
<path d="M13003 13304 c-37 -18 -182 -142 -286 -243 -133 -129 -161 -152 -177
-145 -76 30 -410 30 -530 0 l-65 -16 -111 107 c-209 204 -327 293 -386 293
-38 0 -86 -44 -98 -91 -22 -82 -48 -300 -60 -499 -12 -194 -14 -208 -41 -261
-35 -69 -77 -201 -85 -265 -3 -27 -7 -63 -10 -81 l-5 -32 -113 2 c-99 2 -116
0 -135 -17 -26 -24 -27 -66 -2 -97 17 -22 28 -24 118 -27 141 -4 141 -4 149
-60 4 -26 13 -65 21 -86 7 -22 10 -43 6 -46 -5 -4 -51 -21 -103 -39 -108 -37
-180 -75 -180 -96 0 -26 23 -64 47 -80 22 -15 32 -13 159 31 75 25 137 44 138
42 2 -1 18 -25 36 -53 18 -27 62 -80 97 -116 l64 -66 -51 -164 c-60 -190 -64
-203 -217 -734 -202 -702 -264 -952 -284 -1138 -27 -255 33 -507 158 -661 26
-32 52 -64 57 -70 5 -8 -4 -29 -24 -58 -28 -40 -34 -57 -37 -120 -4 -68 -2
-76 25 -119 23 -35 45 -54 93 -78 l62 -31 184 0 183 0 54 -30 c118 -67 358
-57 466 20 23 17 44 20 124 20 90 0 99 -2 136 -29 56 -40 127 -56 247 -54 96
1 105 3 180 39 l78 39 200 0 c130 0 214 4 241 12 60 19 130 69 148 107 14 31
20 34 100 49 189 37 331 99 475 204 87 64 132 109 206 208 65 86 87 130 136
267 105 293 104 557 -2 1048 -54 255 -53 313 12 445 38 77 44 98 43 150 -1 74
-18 109 -84 168 -128 115 -292 98 -424 -43 -55 -59 -88 -125 -116 -235 -35
-142 -21 -338 43 -570 36 -134 65 -259 82 -359 43 -255 -14 -480 -163 -635
-50 -52 -62 -61 -58 -41 3 14 11 75 16 137 24 245 -24 493 -167 873 -30 80
-81 222 -113 315 -32 94 -81 233 -109 310 -177 480 -247 666 -268 714 -26 61
-29 51 45 131 18 19 49 60 68 91 l35 56 127 -39 c70 -21 132 -38 139 -38 20 0
53 51 53 81 0 38 -31 57 -163 100 -56 18 -103 34 -105 35 -2 1 6 30 17 65 12
34 21 75 21 91 0 22 5 28 23 29 12 0 71 4 132 8 95 8 111 12 127 31 25 31 22
67 -8 97 -26 26 -27 26 -139 20 l-114 -5 -6 56 c-10 98 -51 254 -87 334 -33
70 -36 83 -37 179 -2 161 -38 502 -62 591 -17 65 -90 100 -146 72z m11 -256
c9 -76 16 -199 22 -375 5 -159 7 -176 30 -216 53 -95 94 -251 94 -358 l0 -46
-85 -12 c-102 -14 -245 -49 -262 -63 -17 -14 -16 -60 1 -84 18 -23 54 -24 216
-1 63 9 116 14 118 12 2 -2 -2 -29 -9 -59 -11 -49 -15 -56 -36 -56 -21 0 -182
33 -225 46 -36 11 -75 -65 -47 -93 6 -6 62 -28 125 -49 90 -31 114 -43 114
-57 0 -29 -116 -138 -199 -188 -41 -24 -78 -51 -84 -60 -7 -11 -3 -29 12 -63
20 -47 22 -48 54 -42 17 3 40 7 50 8 14 2 27 -24 67 -142 28 -80 64 -181 79
-225 119 -331 225 -626 257 -710 109 -294 215 -627 245 -775 41 -201 11 -487
-66 -641 -28 -54 -102 -169 -110 -169 -2 0 -19 9 -38 20 -57 34 -139 44 -245
30 -51 -7 -95 -10 -99 -7 -3 4 17 122 46 264 72 363 121 625 121 645 0 9 -11
29 -24 44 -18 21 -32 28 -60 28 -46 0 -74 -27 -88 -85 -21 -93 -196 -1015
-220 -1163 -15 -94 -33 -112 -120 -122 -80 -9 -142 2 -179 34 l-32 26 7 116
c4 63 11 144 16 180 11 74 78 715 87 831 5 69 4 78 -16 98 -23 23 -57 27 -95
10 -32 -15 -34 -20 -51 -168 -8 -69 -22 -180 -30 -246 -25 -192 -75 -673 -75
-715 0 -35 -2 -38 -35 -44 -46 -9 -51 -5 -53 46 -7 180 -98 1071 -112 1098
-24 45 -116 45 -140 0 -15 -28 -12 -124 10 -335 11 -104 25 -237 30 -295 5
-58 16 -166 24 -240 8 -74 17 -179 21 -232 l6 -97 -30 -33 -29 -33 -101 0
c-149 1 -132 -31 -196 365 -14 91 -41 246 -60 345 -45 239 -69 373 -96 530
-29 177 -48 236 -80 254 -33 18 -74 8 -95 -24 -18 -27 -19 -13 22 -295 8 -58
26 -163 39 -235 13 -71 38 -211 55 -310 17 -99 33 -192 36 -207 l5 -26 -117 3
c-134 5 -139 7 -202 105 -97 150 -129 325 -102 550 26 211 134 641 262 1040
57 180 224 762 252 882 6 25 8 26 40 16 49 -15 88 6 100 55 7 25 6 44 0 55 -6
9 -50 37 -99 63 -91 46 -166 110 -204 174 l-19 33 26 10 c231 86 237 90 212
136 -11 22 -20 26 -56 26 -24 0 -80 -9 -126 -20 -118 -28 -115 -29 -128 36 -7
30 -10 57 -8 59 1 1 67 -4 144 -13 78 -8 149 -12 158 -9 9 4 24 22 33 41 16
34 15 37 -1 55 -19 20 -107 44 -206 56 -136 15 -130 12 -130 56 0 83 30 194
80 294 45 92 50 107 50 170 0 80 37 515 44 522 6 6 88 -75 250 -246 l117 -124
47 16 c131 45 374 60 539 33 57 -9 115 -21 129 -26 15 -6 34 -8 43 -5 9 3 94
86 189 185 96 99 177 180 182 180 5 0 11 -19 14 -42z m1227 -2319 c32 -34 36
-61 14 -99 -88 -153 -101 -210 -84 -360 7 -61 16 -110 21 -110 4 0 8 -10 8
-23 0 -12 7 -47 15 -77 60 -215 96 -552 76 -699 -11 -78 -17 -104 -40 -166 -4
-11 -18 -51 -30 -90 -28 -88 -88 -198 -103 -189 -7 4 -8 2 -4 -4 9 -14 -71
-122 -90 -122 -8 0 -14 8 -14 19 0 10 -9 21 -20 24 -26 7 -25 -3 5 -31 28 -27
23 -55 -9 -47 -11 2 -15 2 -8 -1 9 -4 6 -13 -13 -31 -22 -22 -27 -24 -42 -12
-16 12 -17 12 -6 -2 10 -12 9 -18 -6 -31 -15 -13 -108 -60 -176 -89 -33 -14
-147 -41 -152 -36 -2 3 6 22 19 44 26 42 54 98 62 126 5 15 13 17 43 12 25 -3
31 -2 19 3 -19 8 -18 9 4 25 19 13 27 14 39 4 12 -10 14 -9 9 4 -4 11 1 20 18
28 15 6 24 7 24 1 0 -6 4 -10 10 -10 5 0 7 6 4 14 -3 8 15 31 47 57 102 87
192 257 225 425 30 161 13 426 -42 638 -13 49 -14 60 -2 67 10 7 9 9 -3 9 -10
0 -19 11 -22 28 -3 15 -17 74 -31 132 -33 133 -42 248 -27 322 16 76 55 174
69 171 6 -2 9 3 6 11 -6 16 64 74 104 86 44 14 53 11 83 -21z m-975 -2226 c32
-21 57 -68 49 -94 -11 -33 -42 -40 -211 -46 -187 -7 -173 -16 -151 92 l13 60
54 7 c87 10 217 0 246 -19z m-1784 11 l46 -6 8 -62 c4 -33 8 -65 8 -71 1 -16
-112 -26 -212 -20 -77 6 -94 10 -103 26 -12 23 3 80 26 99 41 34 130 47 227
34z"/>
<path d="M11805 12277 c-28 -28 -35 -43 -35 -73 0 -107 94 -169 170 -112 84
62 46 201 -59 215 -36 5 -44 2 -76 -30z"/>
<path d="M12567 12289 c-54 -41 -60 -147 -12 -195 37 -37 104 -34 144 6 41 42
48 86 23 143 -11 25 -29 50 -40 56 -33 17 -87 13 -115 -10z"/>
<path d="M12119 12041 c-27 -21 -21 -44 27 -106 19 -25 34 -52 34 -60 0 -33
-94 -95 -145 -95 -55 0 -83 -32 -64 -73 13 -28 58 -57 88 -57 34 0 90 27 137
65 23 19 45 35 49 35 4 0 26 -16 49 -35 83 -68 155 -82 200 -40 21 19 27 33
24 58 -3 30 -6 32 -49 37 -53 6 -125 49 -141 85 -10 21 -5 30 41 81 87 99 70
118 -106 121 -103 1 -127 -2 -144 -16z"/>
<path d="M14160 10036 c0 -9 7 -12 20 -9 11 3 17 9 14 14 -8 14 -34 10 -34 -5z"/>
<path d="M14137 9989 c4 -13 8 -18 11 -10 2 7 -1 18 -6 23 -8 8 -9 4 -5 -13z"/>
<path d="M14205 9969 c-9 -14 -2 -20 14 -10 8 6 9 11 3 15 -6 3 -14 1 -17 -5z"/>
<path d="M14210 9906 c0 -2 7 -9 15 -16 13 -11 14 -10 9 4 -5 14 -24 23 -24
12z"/>
<path d="M14240 9671 c0 -5 6 -14 14 -20 12 -10 13 -8 9 8 -5 21 -23 30 -23
12z"/>
<path d="M14247 9475 c-4 -8 -2 -17 3 -20 6 -4 10 -4 10 -1 0 2 3 11 6 20 3 9
2 16 -4 16 -5 0 -12 -7 -15 -15z"/>
<path d="M13970 8884 c0 -15 28 -31 41 -23 11 7 11 9 -3 9 -10 0 -18 5 -18 10
0 6 -4 10 -10 10 -5 0 -10 -3 -10 -6z"/>
<path d="M13940 8859 c0 -5 5 -7 10 -4 6 3 10 8 10 11 0 2 -4 4 -10 4 -5 0
-10 -5 -10 -11z"/>
<path d="M13865 8810 c-3 -5 -1 -10 4 -10 6 0 11 -7 11 -15 0 -8 -5 -15 -11
-15 -5 0 -7 -4 -4 -10 3 -5 11 -10 16 -10 6 0 7 5 4 10 -10 16 11 12 25 -5 7
-8 22 -14 34 -14 17 1 18 2 3 6 -9 2 -15 9 -12 14 4 5 -1 9 -9 9 -8 0 -24 11
-34 25 -12 15 -23 21 -27 15z"/>
<path d="M13926 8798 c3 -5 10 -6 15 -3 13 9 11 12 -6 12 -8 0 -12 -4 -9 -9z"/>
<path d="M13822 8766 c10 -7 15 -16 11 -19 -3 -4 -1 -7 5 -7 7 0 12 4 12 8 0
12 -22 32 -34 32 -6 0 -3 -7 6 -14z"/>
<path d="M13800 8730 c8 -5 20 -10 25 -10 6 0 3 5 -5 10 -8 5 -19 10 -25 10
-5 0 -3 -5 5 -10z"/>
<path d="M13750 8720 c0 -5 5 -10 11 -10 5 0 7 5 4 10 -3 6 -8 10 -11 10 -2 0
-4 -4 -4 -10z"/>
<path d="M9268 11799 c-41 -21 -63 -52 -54 -76 4 -10 2 -13 -7 -10 -7 3 -19
-3 -25 -13 -9 -14 -8 -19 3 -24 8 -3 15 -1 15 4 0 6 5 10 11 10 6 0 9 -7 5
-15 -3 -8 -1 -15 5 -15 6 0 8 -9 4 -20 -4 -13 -2 -20 7 -20 7 0 2 -10 -12 -21
l-25 -21 27 6 c20 5 28 2 33 -13 3 -10 3 -26 -1 -35 -3 -9 -2 -16 3 -16 6 0
15 -12 22 -27 11 -25 11 -25 -6 -12 -12 10 -11 4 7 -25 17 -29 20 -38 9 -34
-9 4 -22 2 -30 -3 -10 -6 -8 -9 10 -9 17 0 22 -4 17 -15 -4 -11 0 -15 12 -13
10 2 17 -3 17 -12 0 -8 3 -19 7 -25 13 -21 20 -95 9 -95 -6 0 -11 -4 -11 -10
0 -5 6 -7 14 -4 18 7 41 -32 25 -41 -7 -5 -5 -11 5 -18 8 -7 17 -23 18 -37 2
-14 6 -29 9 -35 8 -13 22 -65 24 -87 1 -10 8 -24 15 -33 7 -8 10 -26 8 -40 -3
-13 -1 -22 3 -19 5 3 11 -8 14 -23 4 -15 11 -38 16 -51 13 -33 11 -55 -3 -46
-7 4 -3 -4 9 -17 12 -13 24 -35 26 -49 2 -14 6 -32 9 -40 25 -71 94 -328 127
-470 48 -212 61 -302 61 -425 0 -89 1 -95 26 -114 15 -12 33 -21 41 -21 28 0
92 -40 122 -77 17 -20 43 -62 58 -93 26 -52 27 -62 28 -205 0 -168 -15 -234
-82 -370 -56 -113 -44 -106 -165 -97 -57 5 -138 5 -178 1 -41 -5 -75 -7 -77
-6 -3 4 8 129 36 397 11 107 27 290 36 405 9 116 19 217 22 225 3 8 7 32 8 53
3 40 15 61 22 40 3 -7 9 -13 15 -13 5 0 0 12 -11 26 -22 28 -28 50 -11 39 6
-3 10 -1 10 5 0 6 6 8 13 4 7 -4 9 -3 4 2 -5 5 -14 9 -20 9 -7 0 -11 9 -9 18
2 10 -2 25 -9 34 -10 12 -10 16 0 22 8 5 -7 17 -43 35 -98 48 -142 13 -151
-119 -3 -44 -10 -132 -17 -197 -10 -99 -14 -115 -27 -110 -14 5 -14 3 -3 -11
8 -9 11 -25 7 -35 -3 -11 -6 -40 -7 -65 0 -37 -3 -44 -17 -40 -14 4 -14 3 1
-10 15 -12 17 -27 13 -108 -3 -52 -12 -155 -20 -229 -8 -74 -22 -198 -30 -275
-9 -77 -17 -153 -19 -170 -17 -150 -17 -212 -1 -228 9 -10 22 -17 28 -17 24 0
116 -72 141 -110 14 -21 28 -57 32 -79 16 -99 -87 -191 -213 -191 l-33 0 0 60
c0 105 -35 155 -103 148 l-32 -3 -5 -105 -5 -105 -50 3 c-78 4 -154 47 -190
106 -27 44 -30 58 -29 125 0 42 6 375 12 740 7 365 10 673 6 685 -18 59 -91
92 -137 61 -14 -9 -28 -23 -31 -30 -3 -8 -8 -160 -11 -337 -3 -178 -8 -363
-11 -412 -17 -293 -17 -294 -33 -267 -6 9 -16 11 -32 5 -13 -4 -27 -8 -30 -9
-3 0 -14 -8 -23 -18 -18 -17 -18 -19 4 -42 23 -24 20 -45 -6 -45 -17 0 -19 20
-1 20 6 1 -5 10 -25 21 -39 20 -46 33 -27 45 8 4 7 9 -2 15 -11 6 -11 11 -1
21 9 9 15 9 24 0 16 -16 31 -15 25 2 -3 8 0 19 7 26 11 8 15 4 21 -17 5 -21 8
-24 16 -12 5 7 9 10 9 4 0 -5 7 3 15 19 18 35 11 47 -11 20 -15 -18 -15 -18
-11 3 l5 22 -37 -19 c-70 -37 -104 -50 -135 -50 -17 0 -41 -3 -53 -6 -19 -5
-21 -10 -12 -25 7 -13 6 -26 -2 -40 -8 -16 -8 -24 2 -33 9 -8 10 -8 4 3 -4 8
-2 17 6 22 21 13 27 11 25 -7 0 -9 5 -19 13 -22 8 -2 11 -1 8 4 -2 5 1 15 9
22 13 12 18 8 15 -12 -1 -5 4 -13 11 -17 14 -9 41 9 32 22 -3 5 0 9 6 9 7 0 9
-7 6 -16 -4 -11 -2 -15 8 -11 10 4 13 1 9 -9 -3 -10 0 -12 10 -8 8 3 18 1 21
-5 4 -6 14 -7 23 -4 13 5 15 2 11 -15 -4 -15 -2 -22 7 -22 18 0 32 23 17 28
-16 5 -15 42 1 42 6 0 0 12 -15 25 -33 28 -36 39 -8 32 12 -3 24 1 29 11 8 14
14 15 28 6 15 -10 18 -25 18 -100 0 -49 -4 -92 -9 -96 -6 -4 -5 -12 2 -20 15
-18 9 -48 -11 -60 -13 -7 -15 -5 -11 7 5 11 -1 15 -22 15 l-29 0 28 -27 c23
-24 29 -26 37 -13 11 17 11 16 16 -22 l3 -28 -238 0 -238 0 1 68 c1 74 -9 437
-25 962 -11 367 -12 372 -63 405 -28 19 -64 12 -96 -17 l-22 -21 6 -396 c4
-218 11 -561 16 -763 10 -421 9 -432 -63 -493 -47 -40 -99 -57 -160 -53 l-42
3 -3 89 c-2 50 -8 96 -14 103 -18 22 -76 16 -103 -12 -22 -22 -25 -32 -25
-105 l0 -80 -27 0 c-16 1 -57 11 -93 23 -93 32 -129 89 -115 183 9 60 75 133
153 170 l55 26 -6 61 c-3 34 -17 166 -31 292 -24 216 -54 544 -92 994 -8 107
-19 204 -24 215 -11 29 -31 45 -68 52 -25 5 -36 1 -58 -21 l-27 -27 7 -141
c12 -254 55 -796 76 -967 5 -41 10 -95 12 -119 l3 -43 -130 1 c-94 1 -145 -3
-183 -14 -64 -19 -61 -22 -121 100 -123 253 -128 466 -15 640 36 56 83 107
132 145 26 20 33 34 37 70 12 104 17 129 41 215 26 89 112 379 139 465 7 25
39 133 70 240 31 107 100 332 152 500 144 460 154 510 108 555 -24 25 -85 34
-111 17 -16 -10 -41 -72 -60 -146 -8 -34 -35 -124 -60 -201 -24 -77 -67 -219
-95 -315 -28 -96 -70 -238 -94 -315 -24 -77 -55 -180 -68 -230 -14 -49 -42
-144 -62 -210 -20 -66 -46 -149 -56 -185 -29 -98 -79 -300 -79 -321 0 -10 -29
-48 -63 -84 -105 -108 -180 -269 -193 -412 -14 -148 39 -358 136 -539 l49 -91
-38 -37 c-62 -60 -91 -131 -91 -219 0 -68 3 -79 33 -123 24 -38 48 -57 99 -83
64 -32 74 -34 214 -42 80 -4 147 -9 148 -11 1 -2 10 -22 21 -46 22 -51 85
-112 153 -146 72 -36 168 -48 360 -44 164 3 168 4 234 35 112 53 186 135 203
226 l7 37 254 0 254 0 0 -22 c1 -75 104 -199 203 -244 60 -28 68 -29 246 -32
199 -4 285 6 360 41 60 28 157 124 168 167 8 32 12 34 58 36 191 10 226 15
277 34 61 22 120 78 143 134 41 99 23 189 -56 282 -27 32 -49 62 -49 66 0 4
16 30 35 56 122 171 181 432 141 632 -19 95 -85 242 -137 303 -17 21 -56 56
-85 78 -50 37 -54 42 -54 82 0 69 -35 249 -89 462 -112 445 -406 1432 -436
1465 -23 25 -50 25 -97 -1z m-900 -3024 c15 -33 15 -36 -4 -28 -8 3 -13 12
-10 19 3 8 -1 14 -10 14 -8 0 -12 5 -9 10 10 17 21 11 33 -15z m64 -22 c8 -10
6 -13 -6 -13 -10 0 -14 5 -11 10 3 6 -1 10 -9 10 -19 0 -21 26 -3 33 6 2 14
-3 16 -12 2 -9 8 -22 13 -28z m-1119 -122 c8 -8 5 -16 -13 -28 -83 -58 -150
-144 -150 -193 0 -19 -6 -20 -102 -20 -112 0 -176 11 -189 32 -12 19 -11 73 2
102 13 27 77 75 127 96 27 10 35 11 42 1 5 -10 9 -9 13 2 3 9 16 18 29 21 40
8 229 -1 241 -13z m2227 11 c0 -5 -7 -9 -15 -9 -8 0 -12 4 -9 9 3 4 9 8 15 8
5 0 9 -4 9 -8z m76 -14 c1 -10 -4 -18 -12 -18 -17 0 -18 16 -1 24 6 3 2 3 -10
0 -14 -3 -23 -1 -23 6 0 18 43 7 46 -12z m69 3 c-9 -16 29 -39 50 -31 19 8 19
9 -2 9 -23 1 -31 15 -14 25 11 7 110 -30 132 -50 10 -9 16 -21 12 -27 -4 -6 0
-8 10 -4 11 4 17 1 17 -8 0 -8 4 -15 9 -15 5 0 11 -9 14 -20 7 -25 5 -25 -27
5 -25 23 -56 25 -56 3 0 -5 4 -6 10 -3 5 3 7 0 4 -8 -3 -9 -13 -13 -26 -9 -17
4 -20 2 -15 -13 5 -11 1 -22 -10 -31 -16 -12 -17 -13 -1 -14 9 0 23 6 31 14
12 12 16 12 30 -5 9 -10 24 -19 32 -19 25 0 17 -20 -12 -31 -35 -13 -230 -22
-237 -10 -14 23 51 39 67 17 6 -7 7 -4 3 7 -4 12 0 17 14 17 13 0 20 7 20 20
0 22 -20 26 -38 8 -9 -9 -12 -9 -12 2 0 7 -3 10 -6 7 -4 -4 -1 -13 6 -22 10
-12 10 -15 -2 -15 -23 0 -28 11 -17 32 8 16 5 23 -15 39 -15 11 -23 25 -20 30
4 6 13 4 23 -5 20 -18 41 -21 41 -6 0 6 -7 10 -15 10 -8 0 -15 5 -15 10 0 6 7
13 15 16 17 7 21 34 5 34 -5 0 -15 -9 -22 -20 -13 -21 -38 -27 -38 -10 0 6
-13 8 -32 5 -21 -4 -29 -3 -23 3 16 16 55 24 55 13 0 -6 7 -11 16 -11 13 0 14
3 5 14 -14 16 2 32 20 20 7 -4 10 -1 7 7 -3 8 -14 13 -24 12 -19 -1 -19 -1 0
12 19 14 41 11 31 -4z m-183 -8 c10 -9 18 -23 18 -31 0 -13 -3 -13 -18 1 -10
10 -24 17 -30 17 -13 0 -16 13 -5 23 9 10 15 9 35 -10z m78 -24 c0 -4 -7 -6
-15 -3 -8 4 -15 10 -15 15 0 4 7 6 15 3 8 -4 15 -10 15 -15z m-29 -22 c-1 -12
-15 -9 -19 4 -3 6 1 10 8 8 6 -3 11 -8 11 -12z m67 -55 c8 -17 9 -28 2 -30 -6
-2 -8 -8 -4 -13 3 -5 0 -9 -6 -9 -6 0 -8 10 -4 26 5 19 4 25 -5 20 -7 -5 -10
-2 -9 6 2 7 -3 12 -10 10 -8 -1 -11 2 -7 8 11 18 30 11 43 -18z m258 -56 c3
-9 13 -12 22 -9 14 5 15 3 4 -8 -10 -11 -16 -10 -34 9 -13 13 -17 22 -10 22 7
0 15 -6 18 -14z"/>
<path d="M7130 8550 c0 -5 5 -10 11 -10 5 0 7 5 4 10 -3 6 -8 10 -11 10 -2 0
-4 -4 -4 -10z"/>
<path d="M9769 8597 c7 -7 14 -8 21 -1 6 6 2 10 -12 11 -16 2 -18 -1 -9 -10z"/>
<path d="M9807 8593 c-4 -3 -7 -17 -7 -30 0 -18 5 -22 25 -21 14 1 25 8 25 16
0 9 -7 11 -21 7 -18 -6 -20 -4 -14 14 6 21 4 26 -8 14z"/>
<path d="M9739 8569 c-15 -15 -18 -24 -9 -34 8 -10 8 -14 -2 -18 -9 -3 -5 -13
13 -31 17 -18 31 -25 42 -20 23 8 4 34 -25 34 -12 0 -18 5 -15 13 5 13 11 13
41 1 14 -5 17 -3 14 7 -3 8 -13 14 -24 14 -10 0 -19 7 -19 15 0 9 7 14 18 12
21 -4 23 14 2 22 -9 3 -25 -4 -36 -15z"/>
<path d="M9690 8490 c0 -5 5 -10 11 -10 5 0 7 5 4 10 -3 6 -8 10 -11 10 -2 0
-4 -4 -4 -10z"/>
<path d="M9752 8429 c2 -7 10 -15 17 -17 8 -3 12 1 9 9 -2 7 -10 15 -17 17 -8
3 -12 -1 -9 -9z"/>
<path d="M9171 11667 c-2 -17 20 -47 30 -42 14 9 11 25 -5 25 -8 0 -17 6 -19
13 -3 6 -6 8 -6 4z"/>
<path d="M9160 11620 c0 -5 5 -10 10 -10 6 0 10 5 10 10 0 6 -4 10 -10 10 -5
0 -10 -4 -10 -10z"/>
<path d="M9119 11564 c-12 -14 -11 -16 5 -13 11 2 21 10 24 17 5 17 -13 15
-29 -4z"/>
<path d="M8960 11541 c0 -10 19 -25 25 -20 1 2 -3 10 -11 17 -8 7 -14 8 -14 3z"/>
<path d="M9012 11536 c7 -8 15 -12 17 -11 5 6 -10 25 -20 25 -5 0 -4 -6 3 -14z"/>
<path d="M9180 11510 c-13 -8 -13 -10 2 -10 9 0 20 5 23 10 8 13 -5 13 -25 0z"/>
<path d="M8950 11445 c0 -8 4 -15 10 -15 5 0 7 7 4 15 -4 8 -8 15 -10 15 -2 0
-4 -7 -4 -15z"/>
<path d="M9210 11410 c0 -6 7 -13 15 -17 24 -9 27 1 5 15 -13 8 -20 8 -20 2z"/>
<path d="M8886 11393 c-6 -14 -5 -15 5 -6 7 7 10 15 7 18 -3 3 -9 -2 -12 -12z"/>
<path d="M9270 11360 c0 -5 5 -10 10 -10 6 0 10 5 10 10 0 6 -4 10 -10 10 -5
0 -10 -4 -10 -10z"/>
<path d="M9293 11323 c-20 -8 -15 -22 7 -20 11 1 20 7 20 14 0 14 -6 15 -27 6z"/>
<path d="M9223 11283 c4 -3 1 -13 -6 -22 -11 -14 -10 -14 5 -2 16 12 16 31 1
31 -4 0 -3 -3 0 -7z"/>
<path d="M9295 11279 c-11 -16 -1 -19 13 -3 7 8 8 14 3 14 -5 0 -13 -5 -16
-11z"/>
<path d="M8775 11230 c-3 -5 1 -10 10 -10 9 0 13 5 10 10 -3 6 -8 10 -10 10
-2 0 -7 -4 -10 -10z"/>
<path d="M8510 11216 c0 -10 8 -16 22 -16 12 0 19 1 17 3 -2 1 -12 9 -21 16
-15 12 -18 11 -18 -3z"/>
<path d="M9270 11220 c0 -5 5 -10 10 -10 6 0 10 5 10 10 0 6 -4 10 -10 10 -5
0 -10 -4 -10 -10z"/>
<path d="M8475 11190 c-3 -5 -1 -10 4 -10 6 0 11 5 11 10 0 6 -2 10 -4 10 -3
0 -8 -4 -11 -10z"/>
<path d="M8620 11170 c0 -5 5 -10 11 -10 5 0 7 5 4 10 -3 6 -8 10 -11 10 -2 0
-4 -4 -4 -10z"/>
<path d="M8500 11162 c0 -12 19 -26 26 -19 2 2 -2 10 -11 17 -9 8 -15 8 -15 2z"/>
<path d="M8660 11160 c0 -5 5 -10 11 -10 5 0 7 5 4 10 -3 6 -8 10 -11 10 -2 0
-4 -4 -4 -10z"/>
<path d="M8915 11070 c3 -5 10 -10 16 -10 5 0 9 5 9 10 0 6 -7 10 -16 10 -8 0
-12 -4 -9 -10z"/>
<path d="M8770 11020 c0 -5 7 -7 15 -4 8 4 15 8 15 10 0 2 -7 4 -15 4 -8 0
-15 -4 -15 -10z"/>
<path d="M9335 10950 c3 -5 8 -10 11 -10 2 0 4 5 4 10 0 6 -5 10 -11 10 -5 0
-7 -4 -4 -10z"/>
<path d="M9322 10483 c-13 -5 -7 -23 9 -23 6 0 8 4 5 9 -4 5 0 12 6 14 7 3 9
5 3 5 -5 0 -16 -2 -23 -5z"/>
<path d="M9610 10050 c0 -5 5 -10 11 -10 5 0 7 5 4 10 -3 6 -8 10 -11 10 -2 0
-4 -4 -4 -10z"/>
<path d="M9287 9916 c-4 -10 -1 -13 8 -9 8 3 12 9 9 14 -7 12 -11 11 -17 -5z"/>
<path d="M9088 9813 c7 -3 16 -2 19 1 4 3 -2 6 -13 5 -11 0 -14 -3 -6 -6z"/>
<path d="M9200 9710 c0 -5 7 -7 15 -4 8 4 15 8 15 10 0 2 -7 4 -15 4 -8 0 -15
-4 -15 -10z"/>
<path d="M9310 9604 c0 -8 5 -12 10 -9 6 3 10 10 10 16 0 5 -4 9 -10 9 -5 0
-10 -7 -10 -16z"/>
<path d="M9265 9300 c3 -5 8 -10 11 -10 2 0 4 5 4 10 0 6 -5 10 -11 10 -5 0
-7 -4 -4 -10z"/>
<path d="M8283 8773 c-22 -8 -14 -23 13 -23 15 0 24 5 22 12 -5 14 -18 18 -35
11z"/>
<path d="M8476 8763 c-6 -14 -5 -15 5 -6 7 7 10 15 7 18 -3 3 -9 -2 -12 -12z"/>
<path d="M8570 8756 c0 -10 9 -16 21 -16 24 0 21 23 -4 28 -10 2 -17 -3 -17
-12z"/>
<path d="M8570 8690 c0 -5 7 -10 15 -10 8 0 15 5 15 10 0 6 -7 10 -15 10 -8 0
-15 -4 -15 -10z"/>
<path d="M8327 8683 c-13 -13 -7 -21 13 -16 11 3 20 9 20 14 0 10 -24 12 -33
2z"/>
<path d="M8380 8670 c0 -5 7 -10 16 -10 8 0 12 5 9 10 -3 6 -10 10 -16 10 -5
0 -9 -4 -9 -10z"/>
<path d="M8422 8651 c-18 -25 -19 -31 -7 -31 8 0 15 6 15 14 0 8 5 16 12 18 6
2 9 10 7 17 -3 7 -13 0 -27 -18z"/>
<path d="M8484 8652 c3 -6 0 -13 -6 -16 -7 -3 -4 -5 6 -3 21 2 25 19 5 26 -6
2 -9 -1 -5 -7z"/>
<path d="M8581 8633 c-16 -17 -11 -25 8 -14 7 5 12 13 10 19 -2 6 -10 4 -18
-5z"/>
<path d="M8345 8630 c3 -5 11 -10 16 -10 6 0 7 5 4 10 -3 6 -11 10 -16 10 -6
0 -7 -4 -4 -10z"/>
<path d="M8410 8566 c0 -2 7 -7 16 -10 8 -3 12 -2 9 4 -6 10 -25 14 -25 6z"/>
<path d="M8582 8556 c7 -8 15 -12 17 -11 5 6 -10 25 -20 25 -5 0 -4 -6 3 -14z"/>
<path d="M8450 8531 c0 -5 7 -12 16 -15 14 -5 15 -4 4 9 -14 17 -20 19 -20 6z"/>
<path d="M8500 8535 c0 -6 4 -17 10 -25 6 -9 5 -17 -1 -21 -7 -4 -5 -8 3 -12
19 -7 19 22 2 48 -8 11 -14 15 -14 10z"/>
<path d="M7401 7172 c-22 -17 -22 -21 -22 -342 l1 -325 26 -22 c30 -28 54 -29
83 -5 22 17 22 19 19 348 -3 359 -4 364 -58 364 -15 0 -38 -8 -49 -18z"/>
<path d="M6286 7161 c-16 -17 -18 -49 -20 -288 -2 -326 0 -348 45 -385 36 -30
89 -37 108 -15 6 8 14 28 17 45 5 25 2 33 -19 46 l-25 17 0 285 c0 209 -3 288
-12 299 -18 21 -73 19 -94 -4z"/>
<path d="M8174 7166 c-18 -14 -19 -28 -16 -347 2 -223 6 -337 13 -346 21 -24
79 -10 105 25 9 13 16 11 50 -12 55 -37 121 -36 189 3 88 50 133 144 121 249
-16 136 -91 214 -207 216 -45 1 -64 -5 -97 -26 -51 -34 -52 -31 -52 108 0 58
-5 114 -10 125 -13 23 -67 26 -96 5z m285 -352 c89 -74 37 -244 -75 -244 -14
0 -40 15 -62 34 -35 33 -37 38 -37 95 1 45 6 68 21 88 43 57 104 68 153 27z"/>
<path d="M9272 7168 c-8 -8 -12 -52 -12 -142 0 -127 0 -129 -19 -112 -26 24
-88 45 -132 46 -50 0 -136 -45 -169 -91 -16 -22 -32 -64 -39 -99 -27 -134 20
-239 132 -296 45 -24 141 -15 193 18 l40 26 10 -22 c10 -24 53 -33 84 -16 20
11 20 16 18 353 l-3 342 -45 3 c-26 2 -50 -2 -58 -10z m-58 -347 c73 -65 56
-201 -30 -237 -44 -18 -100 -5 -135 32 -32 34 -34 122 -3 174 33 57 120 73
168 31z"/>
<path d="M10226 7164 c-14 -13 -16 -56 -16 -317 0 -166 3 -311 6 -322 12 -44
94 -77 128 -52 22 16 25 75 4 88 -10 7 -13 71 -13 304 0 325 2 315 -62 315
-17 0 -39 -7 -47 -16z"/>
<path d="M12684 7168 c-19 -9 -22 -20 -27 -116 -3 -59 -4 -204 -4 -323 2 -198
4 -219 21 -238 21 -24 90 -30 102 -9 9 14 7 675 -2 689 -7 12 -64 10 -90 -3z"/>
<path d="M13760 7165 c-8 -9 -11 -55 -11 -135 0 -66 -1 -120 -2 -120 -1 0 -24
11 -51 25 -60 31 -122 32 -176 5 -105 -54 -168 -238 -116 -340 42 -82 124
-140 198 -140 43 0 120 29 132 49 10 16 29 14 23 -3 -12 -31 50 -49 94 -26 18
10 19 25 19 340 0 285 -2 331 -16 344 -19 20 -78 21 -94 1z m-54 -346 c60 -56
57 -149 -7 -212 -35 -35 -43 -39 -74 -34 -102 17 -144 123 -87 219 34 58 120
72 168 27z"/>
<path d="M6980 7146 c-176 -37 -273 -164 -273 -356 0 -87 27 -159 84 -224 95
-109 254 -143 390 -85 46 20 119 87 119 109 0 19 -48 60 -69 60 -11 0 -37 -11
-57 -25 -78 -53 -160 -54 -238 -5 -129 82 -110 326 31 386 62 27 192 6 217
-35 13 -20 42 -11 76 24 40 41 37 51 -29 102 -64 50 -158 68 -251 49z"/>
<path d="M5748 7143 c-17 -4 -18 -28 -18 -316 0 -172 3 -322 6 -335 l6 -22
216 2 216 3 8 38 c5 23 4 46 -2 58 -10 17 -23 19 -160 19 l-150 0 0 78 0 79
122 7 c67 4 128 12 136 18 9 8 12 22 8 41 -11 54 -19 57 -146 57 l-118 0 -4
75 -3 75 50 0 c28 0 94 3 149 7 98 6 98 6 111 37 17 40 5 69 -31 77 -33 8
-370 9 -396 2z"/>
<path d="M11665 7142 l-50 -7 -2 -305 c-3 -345 -1 -353 59 -358 70 -6 78 6 78
117 0 112 -1 111 93 111 86 0 137 19 187 69 54 55 74 110 64 179 -13 92 -66
160 -142 182 -46 13 -221 20 -287 12z m239 -132 c39 -14 61 -65 47 -110 -19
-62 -47 -80 -132 -83 -54 -1 -74 1 -73 11 1 6 2 53 3 102 l1 90 64 0 c36 0 76
-4 90 -10z"/>
<path d="M9645 6951 c-74 -19 -117 -55 -159 -135 -62 -116 -4 -282 118 -340
49 -23 150 -21 206 5 84 38 99 68 55 109 l-25 24 -41 -23 c-58 -33 -142 -26
-176 13 -48 56 -23 66 163 66 132 0 140 5 131 79 -10 86 -54 149 -132 189 -29
15 -105 22 -140 13z m93 -115 c26 -13 60 -61 51 -70 -7 -7 -188 -10 -194 -4
-9 9 14 50 39 70 26 21 68 23 104 4z"/>
<path d="M12301 6951 c-50 -13 -112 -63 -146 -116 -27 -44 -30 -56 -30 -136 0
-81 2 -90 30 -130 49 -70 104 -102 181 -107 82 -5 144 12 183 50 38 37 39 52
5 74 -24 16 -29 16 -72 1 -61 -22 -110 -21 -149 2 -29 18 -51 56 -40 67 3 3
68 8 146 11 93 4 145 10 151 18 29 35 4 153 -43 203 -49 53 -144 80 -216 63z
m127 -127 c31 -36 29 -64 -5 -65 -42 -2 -177 3 -182 6 -7 7 54 77 73 86 33 14
89 0 114 -27z"/>
<path d="M7631 6941 c-11 -7 -14 -44 -15 -167 -1 -169 5 -216 33 -251 57 -69
150 -82 238 -34 51 28 52 28 55 7 4 -25 54 -34 89 -16 21 12 21 15 17 232 -4
237 -4 238 -60 238 -54 0 -58 -6 -58 -94 -1 -44 -5 -115 -10 -156 -10 -92 -35
-120 -105 -120 -71 0 -79 21 -85 210 l-5 155 -40 3 c-22 1 -46 -2 -54 -7z"/>
<path d="M10565 6931 c-47 -21 -111 -88 -132 -140 -21 -49 -21 -148 0 -187 58
-111 169 -166 282 -139 74 17 128 55 162 112 24 41 28 59 28 123 -1 103 -36
171 -115 217 -46 28 -63 33 -120 33 -41 0 -80 -7 -105 -19z m141 -101 c40 -16
62 -46 70 -98 20 -132 -132 -216 -205 -113 -17 24 -26 73 -22 130 0 13 17 39
37 57 38 36 70 42 120 24z"/>
<path d="M11040 6933 c-68 -35 -99 -120 -68 -188 11 -24 71 -59 171 -99 38
-16 48 -41 25 -64 -17 -17 -94 -15 -130 4 -30 16 -31 15 -61 -15 -31 -30 -31
-30 -11 -52 71 -81 257 -77 323 6 69 89 20 190 -114 235 -35 12 -74 29 -86 39
-20 16 -20 18 -4 34 19 20 67 22 130 5 41 -11 46 -10 60 7 42 56 -10 97 -130
102 -52 2 -79 -2 -105 -14z"/>
<path d="M12895 6936 c-17 -12 -18 -29 -19 -178 l-1 -165 30 -48 c40 -64 84
-88 153 -81 29 2 72 16 97 29 l44 25 3 -22 c2 -17 11 -22 41 -24 67 -6 67 -4
67 230 0 125 -4 217 -10 229 -7 13 -21 19 -43 19 -60 0 -65 -11 -72 -160 -8
-155 -24 -195 -82 -206 -85 -16 -103 21 -103 207 0 92 -4 139 -12 147 -16 16
-70 15 -93 -2z"/>
<path d="M14082 6924 c-28 -14 -65 -41 -81 -60 -29 -33 -61 -116 -61 -159 0
-43 32 -126 61 -160 17 -19 55 -46 85 -61 107 -52 238 -16 309 85 26 37 30 53
33 120 3 63 0 85 -18 124 -24 52 -76 102 -126 123 -55 23 -142 18 -202 -12z
m164 -103 c39 -24 58 -76 51 -138 -13 -119 -159 -148 -207 -41 -25 54 -25 84
-2 127 19 36 72 71 107 71 11 0 34 -9 51 -19z"/>
<path d="M14595 6943 c-31 -8 -83 -51 -100 -83 -43 -83 6 -157 131 -200 64
-23 84 -36 84 -58 0 -42 -69 -53 -138 -22 -50 22 -62 20 -85 -19 -17 -29 -17
-30 12 -54 37 -31 117 -51 179 -45 104 10 162 65 162 153 0 40 -5 52 -32 79
-18 18 -60 42 -93 54 -87 31 -110 45 -113 69 -2 14 4 22 20 27 40 10 88 7 118
-9 24 -13 33 -13 50 -3 26 16 36 54 20 72 -27 34 -147 55 -215 39z"/>
</g>
</svg>
